<svg width="150" height="47" viewBox="0 0 150 47" fill="none" xmlns="http://www.w3.org/2000/svg">
<g clip-path="url(#clip0)">
<path d="M34.9898 16.9498C35.0154 19.2 33.2316 20.9796 31.5673 21.1505C30.4603 21.264 29.3264 21.3402 28.2669 21.6515C26.8015 22.0823 25.4555 22.8106 24.4021 24.0118C23.1816 25.4051 22.4988 26.9434 22.3794 28.8798C22.2623 30.7869 21.6185 32.6543 19.5568 33.3392C16.393 34.3917 12.8536 32.8768 12.8938 29.0472C12.9109 27.4656 14.0094 25.7808 15.7639 25.1181C16.7051 24.7623 17.6072 24.8068 18.5314 24.6744C21.3015 24.2799 23.49 22.9405 24.836 20.3614C25.481 19.1262 25.8505 17.8126 25.7931 16.3878C25.7408 15.0754 25.1702 13.5429 24.4081 12.5255C23.1219 10.808 21.8356 9.85263 19.8909 9.29885C18.262 8.83407 16.5624 8.8645 14.8592 9.42998C13.4169 9.90882 12.3403 10.7834 11.3271 11.8406C10.2518 12.9645 9.67629 14.305 9.58728 15.8704C9.50193 17.3724 9.15934 18.8172 8.09983 19.9012C7.01473 21.0123 5.69187 21.4279 4.08129 21.2113C2.66089 21.0205 1.68308 20.3766 0.843038 19.2667C-0.418854 17.5996 -0.261574 15.2639 1.29781 13.8297C2.38535 12.8287 3.55945 12.4084 5.13836 12.2726C8.1486 12.0127 11.7868 9.78707 12.4854 6.65763C12.6378 5.97272 12.8012 5.27847 12.8463 4.58186C12.9694 2.65129 14.0923 0.849485 16.054 0.278154C19.0021 -0.580012 21.2552 0.553283 22.1123 3.59842C22.2574 4.11473 22.3855 4.64861 22.4244 5.18247C22.6122 7.79443 23.8777 9.66413 26.0529 10.9953C27.4477 11.8488 28.907 12.138 30.5346 12.3054C32.6988 12.5266 34.8934 14.1657 34.9898 16.9498Z" fill="white"/>
<path d="M0.00976562 28.8998C0.00976562 26.6496 1.81422 24.8887 3.48088 24.7353C4.58915 24.6335 5.72424 24.5703 6.7874 24.2694C8.25779 23.8538 9.61233 23.1407 10.6792 21.95C11.9154 20.5709 12.6165 19.0396 12.7579 17.1043C12.8969 15.1983 13.5626 13.338 15.6316 12.6753C18.8077 11.6567 22.33 13.2104 22.2447 17.0388C22.2094 18.6204 21.0913 20.2935 19.3295 20.9373C18.3847 21.2827 17.4824 21.2289 16.557 21.3507C13.7821 21.7159 11.5777 23.0319 10.2024 25.5959C9.54284 26.824 9.1588 28.1329 9.19902 29.5589C9.23681 30.8713 9.75987 32.0057 10.3536 33.1203C11.3741 35.0381 13.0798 36.135 15.0184 36.711C16.6424 37.1935 18.342 37.1806 20.0514 36.6337C21.4998 36.1702 22.586 35.3085 23.6114 34.2606C24.7001 33.1483 25.2916 31.815 25.3976 30.2496C25.5 28.7486 25.8597 27.3086 26.9313 26.2351C28.0298 25.1357 29.3564 24.7342 30.9657 24.9683C32.3837 25.1744 33.3542 25.8288 34.1809 26.948C35.4233 28.6282 35.2379 30.9626 33.6626 32.3791C32.5629 33.3685 31.3852 33.7759 29.8038 33.8953C26.7911 34.1225 23.1274 36.3095 22.3923 39.4308C22.2313 40.1145 22.0606 40.8063 22.0081 41.503C21.8619 43.4325 20.7195 45.2225 18.7503 45.7727C15.7926 46.5993 13.5529 45.4414 12.7311 42.388C12.5921 41.8706 12.4702 41.3343 12.4373 40.8005C12.2788 38.1874 11.0364 36.3037 8.87715 34.9491C7.49211 34.0803 6.03636 33.7759 4.40993 33.591C2.24825 33.3475 0.0731651 31.685 0.00976562 28.8998Z" fill="white"/>
<path d="M63.1147 25.5832V29.6137H44.4736V26.4076L56.17 12.2702H44.7173V8.23965H62.6578V11.4458L50.9919 25.5832H63.1147ZM80.321 25.0336H70.4218L68.5333 29.6137H63.4771L72.9804 8.23965H77.8538L87.3876 29.6137H82.2095L80.321 25.0336ZM78.7676 21.2778L75.3866 13.0946L72.0057 21.2778H78.7676ZM98.8287 8.23965C100.717 8.23965 102.352 8.55517 103.733 9.18622C105.134 9.81727 106.21 10.7129 106.961 11.8732C107.713 13.0335 108.088 14.4076 108.088 15.9954C108.088 17.5628 107.713 18.9368 106.961 20.1175C106.21 21.2778 105.134 22.1734 103.733 22.8045C102.352 23.4152 100.717 23.7206 98.8287 23.7206H94.534V29.6137H89.5996V8.23965H98.8287ZM98.5546 19.69C100.037 19.69 101.164 19.3746 101.936 18.7435C102.707 18.0921 103.093 17.1761 103.093 15.9954C103.093 14.7944 102.707 13.8783 101.936 13.2473C101.164 12.5959 100.037 12.2702 98.5546 12.2702H94.534V19.69H98.5546ZM115.433 12.2702H108.61V8.23965H127.19V12.2702H120.367V29.6137H115.433V12.2702ZM142.816 25.0336H132.917L131.028 29.6137H125.972L135.475 8.23965H140.349L149.882 29.6137H144.704L142.816 25.0336ZM141.263 21.2778L137.882 13.0946L134.501 21.2778H141.263Z" fill="white"/>
<path d="M45.4802 35.1043H43.3545V33.8486H49.1433V35.1043H47.0176V40.5078H45.4802V35.1043ZM57.5812 39.2711V40.5078H52.4378V33.8486H57.4579V35.0853H53.9656V36.5313H57.0498V37.73H53.9656V39.2711H57.5812ZM64.4324 40.622C63.7554 40.622 63.1418 40.4761 62.5914 40.1844C62.0472 39.8862 61.617 39.4772 61.3008 38.9572C60.9907 38.4307 60.8358 37.8378 60.8358 37.1782C60.8358 36.5186 60.9907 35.9288 61.3008 35.4088C61.617 34.8823 62.0472 34.4732 62.5914 34.1816C63.1418 33.8834 63.7586 33.7344 64.4419 33.7344C65.0175 33.7344 65.5363 33.8359 65.9982 34.0389C66.4663 34.2419 66.8586 34.5335 67.1749 34.9141L66.188 35.8273C65.7388 35.3073 65.1821 35.0473 64.5178 35.0473C64.1065 35.0473 63.7396 35.1392 63.417 35.3231C63.0943 35.5007 62.8412 35.7512 62.6578 36.0747C62.4805 36.3981 62.3921 36.7659 62.3921 37.1782C62.3921 37.5905 62.4805 37.9583 62.6578 38.2817C62.8412 38.6052 63.0943 38.8588 63.417 39.0428C63.7396 39.2203 64.1065 39.3092 64.5178 39.3092C65.1821 39.3092 65.7388 39.046 66.188 38.5196L67.1749 39.4328C66.8586 39.8197 66.4663 40.1146 65.9982 40.3176C65.53 40.5206 65.008 40.622 64.4324 40.622ZM76.7728 33.8486V40.5078H75.2354V37.7775H72.2177V40.5078H70.6803V33.8486H72.2177V36.4742H75.2354V33.8486H76.7728ZM86.9043 33.8486V40.5078H85.6422L82.3303 36.4647V40.5078H80.8119V33.8486H82.0835L85.386 37.8917V33.8486H86.9043ZM94.1604 40.622C93.4708 40.622 92.8476 40.473 92.2909 40.1749C91.7405 39.8767 91.3071 39.4677 90.9908 38.9477C90.6808 38.4212 90.5258 37.8314 90.5258 37.1782C90.5258 36.525 90.6808 35.9383 90.9908 35.4183C91.3071 34.8918 91.7405 34.4797 92.2909 34.1816C92.8476 33.8834 93.4708 33.7344 94.1604 33.7344C94.8499 33.7344 95.4699 33.8834 96.0204 34.1816C96.5708 34.4797 97.0041 34.8918 97.3205 35.4183C97.6368 35.9383 97.795 36.525 97.795 37.1782C97.795 37.8314 97.6368 38.4212 97.3205 38.9477C97.0041 39.4677 96.5708 39.8767 96.0204 40.1749C95.4699 40.473 94.8499 40.622 94.1604 40.622ZM94.1604 39.3092C94.5527 39.3092 94.9068 39.2203 95.2232 39.0428C95.5396 38.8588 95.7863 38.6052 95.9634 38.2817C96.1469 37.9583 96.2386 37.5905 96.2386 37.1782C96.2386 36.7659 96.1469 36.3981 95.9634 36.0747C95.7863 35.7512 95.5396 35.5007 95.2232 35.3231C94.9068 35.1392 94.5527 35.0473 94.1604 35.0473C93.7681 35.0473 93.4139 35.1392 93.0975 35.3231C92.7811 35.5007 92.5313 35.7512 92.3478 36.0747C92.1707 36.3981 92.0821 36.7659 92.0821 37.1782C92.0821 37.5905 92.1707 37.9583 92.3478 38.2817C92.5313 38.6052 92.7811 38.8588 93.0975 39.0428C93.4139 39.2203 93.7681 39.3092 94.1604 39.3092ZM101.418 33.8486H102.955V39.2521H106.286V40.5078H101.418V33.8486ZM112.718 40.622C112.029 40.622 111.405 40.473 110.849 40.1749C110.298 39.8767 109.865 39.4677 109.549 38.9477C109.239 38.4212 109.084 37.8314 109.084 37.1782C109.084 36.525 109.239 35.9383 109.549 35.4183C109.865 34.8918 110.298 34.4797 110.849 34.1816C111.405 33.8834 112.029 33.7344 112.718 33.7344C113.408 33.7344 114.028 33.8834 114.578 34.1816C115.129 34.4797 115.562 34.8918 115.878 35.4183C116.195 35.9383 116.353 36.525 116.353 37.1782C116.353 37.8314 116.195 38.4212 115.878 38.9477C115.562 39.4677 115.129 39.8767 114.578 40.1749C114.028 40.473 113.408 40.622 112.718 40.622ZM112.718 39.3092C113.11 39.3092 113.465 39.2203 113.781 39.0428C114.097 38.8588 114.344 38.6052 114.521 38.2817C114.705 37.9583 114.796 37.5905 114.796 37.1782C114.796 36.7659 114.705 36.3981 114.521 36.0747C114.344 35.7512 114.097 35.5007 113.781 35.3231C113.465 35.1392 113.11 35.0473 112.718 35.0473C112.326 35.0473 111.972 35.1392 111.655 35.3231C111.339 35.5007 111.089 35.7512 110.906 36.0747C110.728 36.3981 110.64 36.7659 110.64 37.1782C110.64 37.5905 110.728 37.9583 110.906 38.2817C111.089 38.6052 111.339 38.8588 111.655 39.0428C111.972 39.2203 112.326 39.3092 112.718 39.3092ZM124.464 37.0736H125.869V39.7753C125.508 40.048 125.09 40.2573 124.616 40.4032C124.141 40.5491 123.664 40.622 123.183 40.622C122.493 40.622 121.873 40.4761 121.323 40.1844C120.772 39.8862 120.339 39.4772 120.023 38.9572C119.713 38.4307 119.558 37.8378 119.558 37.1782C119.558 36.5186 119.713 35.9288 120.023 35.4088C120.339 34.8823 120.776 34.4732 121.332 34.1816C121.889 33.8834 122.516 33.7344 123.211 33.7344C123.793 33.7344 124.322 33.8328 124.796 34.0293C125.271 34.2259 125.669 34.5113 125.992 34.8855L125.005 35.7988C124.53 35.2978 123.958 35.0473 123.287 35.0473C122.863 35.0473 122.487 35.1361 122.158 35.3136C121.829 35.4912 121.573 35.7417 121.389 36.0652C121.206 36.3886 121.114 36.7596 121.114 37.1782C121.114 37.5905 121.206 37.9583 121.389 38.2817C121.573 38.6052 121.826 38.8588 122.149 39.0428C122.478 39.2203 122.851 39.3092 123.268 39.3092C123.711 39.3092 124.11 39.214 124.464 39.0238V37.0736ZM129.764 33.8486H131.301V40.5078H129.764V33.8486ZM140.489 39.2711V40.5078H135.345V33.8486H140.365V35.0853H136.873V36.5313H139.957V37.73H136.873V39.2711H140.489ZM146.362 40.622C145.837 40.622 145.327 40.5522 144.834 40.4127C144.347 40.2668 143.955 40.0797 143.657 39.8514L144.179 38.6908C144.464 38.9001 144.802 39.0681 145.195 39.195C145.587 39.3219 145.979 39.3853 146.371 39.3853C146.808 39.3853 147.131 39.3219 147.339 39.195C147.548 39.0618 147.652 38.8874 147.652 38.6718C147.652 38.5133 147.589 38.3832 147.463 38.2817C147.343 38.1739 147.184 38.0883 146.988 38.0249C146.798 37.9615 146.539 37.8917 146.21 37.8156C145.704 37.6951 145.29 37.5745 144.967 37.4541C144.644 37.3336 144.366 37.1402 144.132 36.8738C143.904 36.6074 143.79 36.2522 143.79 35.8083C143.79 35.4215 143.894 35.0726 144.103 34.7619C144.312 34.4447 144.625 34.1943 145.043 34.0103C145.467 33.8263 145.982 33.7344 146.59 33.7344C147.013 33.7344 147.428 33.7852 147.833 33.8866C148.238 33.9881 148.592 34.134 148.896 34.3243L148.421 35.4944C147.808 35.1456 147.194 34.9712 146.58 34.9712C146.15 34.9712 145.83 35.041 145.622 35.1804C145.419 35.3199 145.318 35.5039 145.318 35.7322C145.318 35.9605 145.435 36.1318 145.669 36.2459C145.91 36.3538 146.273 36.4615 146.76 36.5694C147.267 36.6898 147.681 36.8104 148.004 36.9309C148.326 37.0513 148.601 37.2416 148.829 37.5017C149.063 37.7617 149.18 38.1137 149.18 38.5576C149.18 38.9382 149.073 39.2869 148.858 39.6041C148.649 39.9148 148.333 40.1621 147.909 40.3461C147.485 40.5301 146.969 40.622 146.362 40.622Z" fill="white"/>
</g>
<defs>
<clipPath id="clip0">
<rect width="150" height="46.0317" fill="white"/>
</clipPath>
</defs>
</svg>
